Patient4_TMGait_0pt4_02_right_05_GRF.mot
version=1
nRows=52
nColumns=19
inDegrees=no
endheader
time	F1x	F1y	F1z	M1x	M1y	M1z	F2x	F2y	F2z	M2x	M2y	M2z	EC1x	EC1y	EC1z	EC2x	EC2y	EC2z
5.98	2.2985	761.3376	51.7956	-263.384	-51.576	818.531	13.5693	10.8159	5.6591	1.8179	-7.0735	9.5054	-0.0592	0.0182	-0.0073	-0.0462	0.0165	0.9585
5.994	3.4147	754.8303	53.3192	-260.6343	-52.5634	808.2124	8.7488	7.6348	3.7747	1.3785	-4.6246	6.8724	-0.0592	0.0182	-0.0073	-0.0462	0.0165	0.9585
6.008	5.1012	747.8605	54.2778	-257.7262	-52.6744	796.8659	4.7681	4.9914	2.1653	1.0231	-2.5589	4.683	-0.0592	0.0182	-0.0073	-0.0462	0.0165	0.9585
6.022	7.3118	741.3954	54.7347	-255.001	-52.0028	785.6844	1.8099	3.0215	0.93051	0.76589	-0.99078	3.0511	-0.0592	0.0182	-0.0073	-0.0462	0.0165	0.9585
6.036	9.9232	736.4292	54.8757	-252.7908	-50.8059	775.8755	-0.19457	1.7105	0.074855	0.60313	0.09213	1.9752	-0.0592	0.0182	-0.0073	-0.0462	0.0165	0.9585
6.05	12.7765	733.7718	54.9277	-251.3562	-49.3989	768.4306	-1.4094	0.92824	-0.45613	0.5118	0.76681	1.3398	-0.0592	0.0182	-0.0073	-0.0462	0.0165	0.9585
6.064	15.7051	733.9153	55.0902	-250.8477	-48.0687	763.9796	-2.0407	0.51912	-0.73526	0.46345	1.1332	1.0131	-0.0592	0.0182	-0.0073	-0.0462	0.0165	0.9585
6.078	18.5761	736.9737	55.4627	-251.2953	-46.9841	762.7142	-2.2914	0.32879	-0.83946	0.42719	1.2941	0.85828	-0.0592	0.0182	-0.0073	-0.0462	0.0165	0.9585
6.092	21.3086	742.6809	56.0867	-252.6081	-46.2249	764.3901	-2.3186	0.19357	-0.83661	0.3664	1.3338	0.70668	-0.0592	0.0182	-0.0073	-0.0462	0.0165	0.9585
6.106	23.8944	750.4475	56.9088	-254.5958	-45.7445	768.3876	-2.2576	-0.016018	-0.78044	0.24934	1.321	0.43007	-0.0592	0.0182	-0.0073	-0.0462	0.0165	0.9585
6.12	26.3594	759.442	57.8486	-256.9926	-45.4494	773.8175	-2.1748	-0.41867	-0.71322	0.045503	1.3019	-0.10023	-0.0592	0.0182	-0.0073	-0.0462	0.0165	0.9585
6.134	28.7408	768.7089	58.7896	-259.4938	-45.2068	779.661	-2.0923	-1.1135	-0.65933	-0.27092	1.2962	-0.99083	-0.0592	0.0182	-0.0073	-0.0462	0.0165	0.9585
6.148	31.0893	777.2554	59.6489	-261.7769	-44.9155	784.8678	-2.0065	-2.1575	-0.62531	-0.71433	1.2974	-2.2946	-0.0592	0.0182	-0.0073	-0.0462	0.0165	0.9585
6.162	33.4276	784.1139	60.3591	-263.5196	-44.4994	788.4427	-1.8552	-3.5465	-0.59954	-1.2774	1.2622	-4.0037	-0.0592	0.0182	-0.0073	-0.0462	0.0165	0.9585
6.176	35.751	788.421	60.9126	-264.4229	-43.9528	789.5255	-1.5542	-5.1411	-0.56103	-1.9071	1.1296	-5.9491	-0.0592	0.0182	-0.0073	-0.0462	0.0165	0.9585
6.19	38.0486	789.5954	61.3416	-264.2731	-43.3163	787.5631	-0.98084	-6.6426	-0.47107	-2.4896	0.80916	-7.779	-0.0592	0.0182	-0.0073	-0.0462	0.0165	0.9585
6.204	40.3011	787.4839	61.7054	-262.9935	-42.66	782.4553	-0.00038765	-7.5339	-0.27736	-2.828	0.19486	-8.8775	-0.0592	0.0182	-0.0073	-0.0462	0.0165	0.9585
6.218	42.4983	782.3462	62.0738	-260.6477	-42.0606	774.5131	1.508	-7.0116	0.083581	-2.6183	-0.82346	-8.2811	-0.0592	0.0182	-0.0073	-0.0462	0.0165	0.9585
6.232	44.6421	774.7813	62.5131	-257.42	-41.5867	764.3801	3.6514	-3.9826	0.67316	-1.4433	-2.3468	-4.6887	-0.0592	0.0182	-0.0073	-0.0462	0.0165	0.9585
6.246	46.7285	765.5537	63.057	-253.5571	-41.2753	752.8644	6.4215	2.917	1.54	1.2184	-4.4167	3.5386	-0.0592	0.0182	-0.0073	-0.0462	0.0165	0.9585
6.26	48.7175	755.2833	63.6928	-249.2672	-41.1274	740.6352	9.6344	15.1985	2.6961	5.9465	-6.9604	18.2167	-0.0592	0.0182	-0.0073	-0.0462	0.0165	0.9585
6.274	50.5045	744.1342	64.3334	-244.6182	-41.0926	727.9161	12.8429	34.2734	4.0759	13.279	-9.7161	41.0311	-0.0592	0.0182	-0.0073	-0.0462	0.0165	0.9585
6.288	51.9344	731.6373	64.7961	-239.4836	-41.0491	714.2932	15.1936	60.9875	5.5087	23.5344	-12.149	72.986	-0.0592	0.0182	-0.0073	-0.0462	0.0165	0.9585
6.302	52.8441	716.7747	64.8293	-233.5686	-40.8166	698.8038	15.3595	94.9096	6.649	36.543	-13.3428	113.5544	-0.0592	0.0182	-0.0073	-0.0462	0.0165	0.9585
6.316	53.1114	698.3153	64.1611	-226.5197	-40.182	680.2487	12.1597	134.0335	6.9183	51.5011	-12.1687	160.4024	-0.0592	0.0182	-0.0073	-0.0462	0.0165	0.9585
6.33	52.7126	675.2838	62.5974	-218.0757	-38.9738	657.6314	5.8523	174.9684	5.7409	67.056	-8.0799	209.5566	-0.0592	0.0182	-0.0073	-0.0462	0.0165	0.9585
6.344	51.7268	647.2976	60.0749	-208.1678	-37.1061	630.4842	-1.8599	213.8234	2.9809	81.7015	-1.6266	256.2567	-0.0592	0.0182	-0.0073	-0.0462	0.0165	0.9585
6.358	50.3229	614.5234	56.6891	-196.8979	-34.6041	598.8386	-9.4559	248.6125	-1.1153	94.6735	6.296	297.9541	-0.0592	0.0182	-0.0073	-0.0462	0.0165	0.9585
6.372	48.666	577.3764	52.5828	-184.4317	-31.5363	562.9772	-16.2347	279.998	-6.118	106.2357	14.9176	335.3267	-0.0592	0.0182	-0.0073	-0.0462	0.0165	0.9585
6.386	46.8053	536.2287	47.8886	-170.8957	-27.9966	523.2054	-22.0555	309.9486	-11.5807	117.1706	23.6635	370.6887	-0.0592	0.0182	-0.0073	-0.0462	0.0165	0.9585
6.4	44.6939	491.413	42.6637	-156.3834	-24.0427	479.8281	-26.9929	340.5539	-17.0577	128.3172	32.0559	406.4797	-0.0592	0.0182	-0.0073	-0.0462	0.0165	0.9585
6.414	42.1834	443.3393	36.9674	-140.9942	-19.7681	433.2533	-31.072	373.5399	-22.3269	140.361	39.8487	444.6747	-0.0592	0.0182	-0.0073	-0.0462	0.0165	0.9585
6.428	39.0564	392.6047	30.9524	-124.8718	-15.374	384.0705	-34.2982	410.1509	-27.3129	153.7839	46.969	486.6742	-0.0592	0.0182	-0.0073	-0.0462	0.0165	0.9585
6.442	35.0962	340.0829	24.9149	-108.2402	-11.1973	333.1307	-36.7053	450.9569	-32.176	168.7869	53.6098	533.1173	-0.0592	0.0182	-0.0073	-0.0462	0.0165	0.9585
6.456	30.1608	286.9948	19.2333	-91.4348	-7.6303	281.6271	-38.3843	495.6175	-37.1209	185.2118	60.0423	583.5927	-0.0592	0.0182	-0.0073	-0.0462	0.0165	0.9585
6.47	24.2823	234.9224	14.2574	-74.921	-4.993	231.0829	-39.5343	542.864	-42.4512	202.5411	66.6622	636.6331	-0.0592	0.0182	-0.0073	-0.0462	0.0165	0.9585
6.484	17.722	185.7338	10.2057	-59.2782	-3.416	183.2886	-40.4014	590.932	-48.2943	220.0828	73.6852	690.2126	-0.0592	0.0182	-0.0073	-0.0462	0.0165	0.9585
6.498	11.0108	141.2704	7.1336	-45.0973	-2.7947	140.0009	-41.1776	638.0418	-54.5372	237.1637	81.0388	742.2964	-0.0592	0.0182	-0.0073	-0.0462	0.0165	0.9585
6.512	4.8115	102.886	4.9585	-32.8271	-2.8467	102.5128	-41.9376	682.4725	-60.8417	253.1598	88.3623	790.9161	-0.0592	0.0182	-0.0073	-0.0462	0.0165	0.9585
6.526	-0.29013	71.1889	3.4805	-22.6844	-3.1942	71.4253	-42.6305	722.5267	-66.7562	267.4748	95.1266	834.1353	-0.0592	0.0182	-0.0073	-0.0462	0.0165	0.9585
6.54	-3.8866	46.1188	2.4677	-14.6662	-3.4827	46.7034	-43.1413	756.6259	-71.86	279.561	100.8154	870.1801	-0.0592	0.0182	-0.0073	-0.0462	0.0165	0.9585
6.554	-5.8043	27.1695	1.7283	-8.6153	-3.4709	27.8933	-43.3528	783.3898	-75.8118	288.9459	105.0102	897.5334	-0.0592	0.0182	-0.0073	-0.0462	0.0165	0.9585
6.568	-6.1595	13.6248	1.1407	-4.3017	-3.0823	14.3422	-43.174	801.7819	-78.4267	295.2785	107.4777	915.1044	-0.0592	0.0182	-0.0073	-0.0462	0.0165	0.9585
6.582	-5.4307	4.6998	0.67757	-1.4709	-2.4469	5.3213	-42.543	811.3023	-79.6298	298.3991	108.1247	922.4174	-0.0592	0.0182	-0.0073	-0.0462	0.0165	0.9585
6.596	-4.2176	-0.49468	0.35599	0.16634	-1.7721	0.004829	-41.4206	812.1485	-79.4878	298.3965	107.0221	919.7837	-0.0592	0.0182	-0.0073	-0.0462	0.0165	0.9585
6.61	-2.9161	-2.9503	0.16054	0.92905	-1.1712	-2.5607	-39.772	805.3544	-78.1362	295.6583	104.3294	908.4376	-0.0592	0.0182	-0.0073	-0.0462	0.0165	0.9585
6.624	-1.7483	-3.587	0.063105	1.114	-0.69208	-3.2864	-37.5837	792.7484	-75.8032	290.8548	100.3169	890.4837	-0.0592	0.0182	-0.0073	-0.0462	0.0165	0.9585
6.638	-0.82323	-3.1493	0.020725	0.96121	-0.33667	-2.9103	-34.9045	776.6722	-72.7746	284.8366	95.3429	868.5807	-0.0592	0.0182	-0.0073	-0.0462	0.0165	0.9585
6.652	-0.15527	-2.1927	0.014515	0.64601	-0.099162	-1.9864	-31.8489	759.6547	-69.3716	278.5155	89.8263	845.5766	-0.0592	0.0182	-0.0073	-0.0462	0.0165	0.9585
6.666	0.27949	-1.077	0.017212	0.28164	0.048848	-0.87551	-28.5637	744.1138	-65.9136	272.7591	84.1926	824.1742	-0.0592	0.0182	-0.0073	-0.0462	0.0165	0.9585
6.68	0.52501	-0.024853	0.022449	-0.061331	0.12617	0.19396	-25.2006	732.0467	-62.6841	268.2841	78.824	806.5886	-0.0592	0.0182	-0.0073	-0.0462	0.0165	0.9585
6.694	0.63497	0.84565	0.023539	-0.34496	0.15715	1.0918	-21.8953	724.7982	-59.9168	265.572	74.0275	794.295	-0.0592	0.0182	-0.0073	-0.0462	0.0165	0.9585
